<svg xmlns="http://www.w3.org/2000/svg" width="43.075" height="45.721" viewBox="0 0 43.075 45.721"><path d="M16.874,37.189C6.964,40.162,6.964,32.234,3,31.243M30.748,43.135v-7.67a6.679,6.679,0,0,0-1.863-5.173C35.109,29.6,41.65,27.24,41.65,16.418a10.781,10.781,0,0,0-2.972-7.431,10.049,10.049,0,0,0-.18-7.474s-2.339-.694-7.75,2.933a26.52,26.52,0,0,0-13.874,0C11.463.819,9.124,1.513,9.124,1.513a10.049,10.049,0,0,0-.178,7.472,10.782,10.782,0,0,0-2.973,7.492c0,10.743,6.541,13.1,12.764,13.874a6.679,6.679,0,0,0-1.863,5.114v7.67" transform="translate(-0.575 0.585)" fill="none" stroke="#e6bda1" stroke-linecap="round" stroke-linejoin="round" stroke-width="4"/></svg>