<svg xmlns="http://www.w3.org/2000/svg" width="31.366" height="69.956" viewBox="0 0 31.366 69.956"><path d="M45.677,27.743C42,11.537,33.312,6.212,32.38,4.174A26.192,26.192,0,0,1,30.243,0c-.006.055-.012.09-.015.143V.181h0c-.006.044-.009.073-.012.114V.338h-.006c0,.029-.006.052-.006.076V.49h-.009a.554.554,0,0,1-.009.073V.624h-.006a.208.208,0,0,1-.006.061V.743h-.006c0,.029,0,.064-.006.093V.842c-.009.05-.017.1-.026.146v.023h-.006a.154.154,0,0,0-.009.035V1.1h-.009V1.16H30.1v.052h-.015v.061h-.012v.055h-.012v.05h-.017V1.42H30.03v.052h-.012v.041H30v.038H30v.044h-.012a.018.018,0,0,0,0,.012v.029h-.009a.037.037,0,0,0,0,.017V1.67h-.006a.128.128,0,0,0-.006.029c-.009.02-.02.041-.029.061v.006a.089.089,0,0,0-.015.02V1.81H29.9v.023h-.015v.023h-.009v.029h-.017v.041h-.012v.012h-.012v.023h-.012v.032h-.012v.023H29.8v.032h-.012v.023h-.015V2.1h-.009v.029h-.015v.023h-.012v.017h-.012v.023h-.017v.026h-.012v.017H29.68v.023h-.012v.032h-.015V2.3h-.009v.023h-.017v.012h-.012v.029H29.6v.012h-.012V2.4h-.015v.017H29.57l-.006.012V2.44h-.006c0,.006-.006.006-.006.012v0h0a.047.047,0,0,1-.012.02v.009h0a.548.548,0,0,0-.035.052v0a.131.131,0,0,0-.026.029v.006h0s-.009.006-.009.009v.009h-.006l-.009.009v0h0s-.006.006-.009.012v.012h-.009l-.006.006v.006h-.006c0,.006-.006.006-.006.009v.009H29.4s0,.006-.006.009v.017h-.009v.012h-.012v.017H29.36v.023h-.015V2.711h-.015v.012h-.012V2.74H29.3v.023H29.29v.012h-.012v.017h-.012V2.8h-.012v.023h-.017v.012h-.012v.017h-.015v.012H29.2v.015h-.015v.029h-.006v.012h-.017v.015H29.15v.006h-.012v.012h-.015v.029h-.012V3H29.1v.012h-.012v.017h-.015v.012h-.015v.012h-.012v.012h-.012V3.09h-.012V3.1H29v.012h-.012v.012h-.015v.017h-.012v.012h-.015v.02H28.94v.012h-.017v.017h-.006v.012h-.012V3.23H28.89v.012h-.012v.017h-.015V3.27h-.009a.009.009,0,0,0,0,.006v.006h-.006l-.012.012a.054.054,0,0,1-.012.009V3.32h-.012v.015H28.8v.012h-.012v.012H28.78l-.009.009v.009h-.006l-.006.006V3.39h-.006a.292.292,0,0,1-.041.047l-.035.029a1.066,1.066,0,0,0-.114.093.614.614,0,0,0-.064.05v0h0l-.143.114v0c-.07.058-.137.114-.216.181v0h-.006c-.166.137-.341.291-.542.463v0h0c-.493.431-1.078.985-1.734,1.656l-.044.044-.012.012c-3.964,4.1-10.211,12.648-10.869,26.458a30.215,30.215,0,0,0,.017,3.335V35.9a31.758,31.758,0,0,0,4.162,13.863v0a36.51,36.51,0,0,0,2.7,4.1v0a37.3,37.3,0,0,0,7.328,7.363c1.285,2.982,1.166,8.1,1.166,8.1l1.877.627a34.96,34.96,0,0,1,.154-7.351,4.541,4.541,0,0,1,1.017-1.93,24.429,24.429,0,0,0,2.323-1.88c.052-.055.082-.1.128-.157,4.433-4.133,12.715-14.312,9.875-30.894Z" transform="translate(-14.891)" fill="#e9d4cd"/></svg>