<svg xmlns="http://www.w3.org/2000/svg" width="58.01" height="67.678" viewBox="0 0 58.01 67.678"><g transform="translate(2.25 4.5)"><path d="M26.742,63.178a4.915,4.915,0,0,1-2.513-.695l-8-4.9c-1.2-.689-.608-.937-.218-1.079a17.262,17.262,0,0,0,3.769-1.856.6.6,0,0,1,.6.049l6,3.551a.768.768,0,0,0,.745,0L50.561,44.312a.791.791,0,0,0,.365-.671V15.421a.807.807,0,0,0-.37-.684L27.122.435a.726.726,0,0,0-.74,0L2.964,14.742a.8.8,0,0,0-.38.679v28.22a.771.771,0,0,0,.375.663l6.032,3.621c3.567,1.844,5.679-.026,5.679-2.207V17.968a.7.7,0,0,1,.694-.714H18.81a.7.7,0,0,1,.694.714V45.718c0,4.919-2.924,7.742-7.432,7.742-1.383,0-2.477,0-5.522-1.553L.268,48.164A5.274,5.274,0,0,1-2.25,43.639V15.017A5.26,5.26,0,0,1,.268,10.5L24.24-3.834a5.09,5.09,0,0,1,5.035,0L53.242,10.5a5.267,5.267,0,0,1,2.518,4.519V43.639a5.283,5.283,0,0,1-2.518,4.525L29.275,62.481a4.913,4.913,0,0,1-2.523.695Z" transform="translate(0)" fill="#e9d4cd"/><path d="M21.475,32.859c-9.76,0-12.691-4.775-12.691-8.954a.7.7,0,0,1,.689-.714h3.1a.7.7,0,0,1,.689.607c.466,3.263,2.53,4.706,8.207,4.706,5.046,0,7.114-1.563,7.114-4.333,0-1.6-.523-2.783-8.37-3.58-6.56-.671-10.618-2.171-10.618-7.6,0-5.006,4.078-7.93,10.912-7.93,6.968,0,11.551,2.115,11.96,7.679a.756.756,0,0,1-.187.55.683.683,0,0,1-.507.231H28.663a.7.7,0,0,1-.674-.561C27.325,10.4,25.426,9.426,20.5,9.426c-5.512,0-6.155,1.927-6.155,3.415,0,1.807.76,2.333,8.2,3.349,7.366,1.007,10.867,2.435,10.867,7.788,0,5.405-4.352,8.88-11.946,8.88Z" transform="translate(12.673 10.983)" fill="#e9d4cd"/></g></svg>