<svg xmlns="http://www.w3.org/2000/svg" width="77.342" height="67.678" viewBox="0 0 77.342 67.678"><path d="M63.173,24.183q-1.224-.408-2.447-.77c.136-.559.257-1.118.378-1.677,1.858-9,.634-16.239-3.489-18.626C53.641.829,47.161,3.2,40.6,8.911c-.65.559-1.284,1.148-1.888,1.737-.408-.393-.831-.786-1.254-1.163C30.59,3.382,23.7.814,19.577,3.216c-3.958,2.3-5.136,9.109-3.474,17.629.166.846.347,1.677.559,2.523-.967.272-1.918.574-2.81.891C5.786,27.053,0,31.464,0,36.026c0,4.713,6.163,9.441,14.547,12.311.68.227,1.36.453,2.054.65-.227.906-.423,1.8-.6,2.719-1.586,8.384-.347,15.03,3.61,17.311,4.079,2.357,10.937-.06,17.614-5.906.529-.468,1.057-.952,1.586-1.465.665.65,1.36,1.269,2.054,1.873,6.465,5.559,12.855,7.81,16.8,5.529,4.079-2.357,5.408-9.5,3.686-18.2q-.2-1-.453-2.039c.483-.136.952-.287,1.42-.438,8.716-2.885,15.03-7.553,15.03-12.342,0-4.577-5.952-9.018-14.169-11.843ZM42.735,11.358C48.354,6.464,53.6,4.545,55.983,5.92c2.553,1.465,3.535,7.387,1.934,15.166-.106.514-.211,1.012-.347,1.511A77.331,77.331,0,0,0,47.4,21a76.322,76.322,0,0,0-6.435-8.021c.589-.559,1.163-1.088,1.767-1.616ZM25.257,43.866c.77,1.314,1.556,2.628,2.387,3.912a68.4,68.4,0,0,1-7.009-1.133A70.565,70.565,0,0,1,23.1,39.923c.695,1.329,1.4,2.644,2.16,3.943ZM20.68,25.693c2.175-.483,4.486-.876,6.888-1.178-.8,1.254-1.586,2.538-2.326,3.837-.74,1.284-1.465,2.6-2.145,3.928-.952-2.251-1.752-4.456-2.417-6.586ZM24.819,36.1c1-2.085,2.085-4.124,3.233-6.133s2.387-3.958,3.686-5.876c2.266-.166,4.577-.257,6.934-.257s4.683.091,6.934.257q1.926,2.855,3.671,5.846t3.278,6.1q-1.518,3.127-3.263,6.163c-1.148,2.009-2.372,3.958-3.656,5.891-2.251.166-4.592.242-6.964.242s-4.668-.076-6.888-.211q-1.971-2.878-3.716-5.891c-1.163-2.009-2.236-4.048-3.248-6.133ZM52.1,43.836c.77-1.329,1.5-2.674,2.205-4.033a70.123,70.123,0,0,1,2.553,6.692,66.351,66.351,0,0,1-7.1,1.208C50.575,46.434,51.345,45.135,52.1,43.836ZM54.276,32.28c-.71-1.329-1.435-2.659-2.19-3.958q-1.11-1.926-2.311-3.807a69.514,69.514,0,0,1,6.934,1.208,66.853,66.853,0,0,1-2.432,6.556ZM38.7,15.285a66.334,66.334,0,0,1,4.471,5.408c-2.991-.136-6-.136-8.988,0C35.665,18.745,37.191,16.932,38.7,15.285ZM21.179,6.025c2.538-1.48,8.172.634,14.109,5.891.378.332.755.695,1.148,1.057A76.746,76.746,0,0,0,29.955,21,79.628,79.628,0,0,0,19.8,22.566c-.2-.77-.363-1.556-.529-2.341-1.42-7.311-.483-12.825,1.9-14.2Zm-3.7,39.819c-.634-.181-1.254-.378-1.873-.589a30.809,30.809,0,0,1-9.517-4.713,6.778,6.778,0,0,1-2.84-4.517c0-2.764,4.773-6.3,11.662-8.7.861-.3,1.737-.574,2.613-.831a80.325,80.325,0,0,0,3.7,9.607,82.572,82.572,0,0,0-3.746,9.743Zm17.614,14.8a27.649,27.649,0,0,1-8.52,5.332,6.686,6.686,0,0,1-5.332.2c-2.4-1.39-3.4-6.722-2.039-13.9.166-.846.347-1.692.559-2.523a75.57,75.57,0,0,0,10.257,1.48A79.718,79.718,0,0,0,36.541,59.3C36.058,59.772,35.574,60.226,35.091,60.649Zm3.7-3.671c-1.541-1.662-3.082-3.5-4.577-5.483,1.45.06,2.946.091,4.456.091,1.556,0,3.082-.03,4.592-.106a65.144,65.144,0,0,1-4.471,5.5ZM58.536,61.51a6.714,6.714,0,0,1-2.492,4.728c-2.4,1.39-7.523-.423-13.052-5.166-.634-.544-1.269-1.133-1.918-1.737a74.727,74.727,0,0,0,6.375-8.1,74.467,74.467,0,0,0,10.3-1.586c.151.619.287,1.239.408,1.843a27.537,27.537,0,0,1,.378,10.015Zm2.749-16.239c-.423.136-.846.272-1.284.393a76.738,76.738,0,0,0-3.852-9.638,76.355,76.355,0,0,0,3.7-9.5c.786.227,1.541.468,2.266.71C69.155,29.651,74.095,33.246,74.095,36c0,2.961-5.272,6.783-12.81,9.275ZM38.671,43a6.919,6.919,0,1,0-6.919-6.919A6.917,6.917,0,0,0,38.671,43Z" transform="translate(0 -2.251)" fill="#e9d4cd"/></svg>